<svg width="18" height="16" viewBox="0 0 18 16" fill="none" xmlns="http://www.w3.org/2000/svg">
<path fill-rule="evenodd" clip-rule="evenodd" d="M17.0285 5.8322L11.7007 5.05813L9.31895 0.230426C9.25115 0.115117 9.12738 0.0443115 8.99361 0.0443115C8.85984 0.0443115 8.73607 0.115117 8.66827 0.230426L6.28544 5.05704L0.956211 5.8322C0.819507 5.85193 0.705855 5.94756 0.663034 6.07887C0.620212 6.21018 0.655645 6.35442 0.754436 6.45095L4.61065 10.2092L3.70048 15.5155C3.67726 15.6516 3.7332 15.789 3.84483 15.8702C3.95647 15.9513 4.10446 15.9621 4.22669 15.898L8.99234 13.3929L13.758 15.897C13.8802 15.961 14.0282 15.9502 14.1398 15.8691C14.2515 15.7879 14.3074 15.6505 14.2842 15.5145L13.374 10.2092L17.2302 6.45095C17.329 6.35447 17.3645 6.2103 17.3218 6.07901C17.279 5.94771 17.1655 5.85205 17.0288 5.8322H17.0285Z" fill="#F5A623"/>
</svg>
